<svg width="504" height="520" viewBox="0 0 504 520" fill="none" xmlns="http://www.w3.org/2000/svg">
  <rect width="504" height="520" fill="none" />
  <path fill-rule="evenodd" clip-rule="evenodd" d="M0 40C5.52285 40 10 35.5228 10 30V20V0C4.47715 0 0 4.47715 0 10V20V40ZM22 40C16.4772 40 12 35.5228 12 30V20V0C17.5228 0 22 4.47715 22 10V20V40Z" fill="rgb(39, 12, 27)" />
  <path fill-rule="evenodd" clip-rule="evenodd" d="M24 40C29.5228 40 34 35.5228 34 30V20V0C28.4772 0 24 4.47715 24 10V20V40ZM46 40C40.4772 40 36 35.5228 36 30V20V0C41.5228 0 46 4.47715 46 10V20V40Z" fill="rgb(39, 12, 27)" />
  <path fill-rule="evenodd" clip-rule="evenodd" d="M48 40C53.5228 40 58 35.5228 58 30V20V0C52.4772 0 48 4.47715 48 10V20V40ZM70 40C64.4772 40 60 35.5228 60 30V20V0C65.5228 0 70 4.47715 70 10V20V40Z" fill="rgb(39, 12, 27)" />
  <path fill-rule="evenodd" clip-rule="evenodd" d="M72 40C77.5228 40 82 35.5228 82 30V20V0C76.4772 0 72 4.47715 72 10V20V40ZM94 40C88.4772 40 84 35.5228 84 30V20V0C89.5228 0 94 4.47715 94 10V20V40Z" fill="rgb(39, 12, 27)" />
  <path fill-rule="evenodd" clip-rule="evenodd" d="M96 40C101.523 40 106 35.5228 106 30V20V0C100.477 0 96 4.47715 96 10V20V40ZM118 40C112.477 40 108 35.5228 108 30V20V0C113.523 0 118 4.47715 118 10V20V40Z" fill="rgb(39, 12, 27)" />
  <path fill-rule="evenodd" clip-rule="evenodd" d="M120 40C125.523 40 130 35.5228 130 30V20V0C124.477 0 120 4.47715 120 10V20V40ZM142 40C136.477 40 132 35.5228 132 30V20V0C137.523 0 142 4.47715 142 10V20V40Z" fill="rgb(39, 12, 27)" />
  <path fill-rule="evenodd" clip-rule="evenodd" d="M144 40C149.523 40 154 35.5228 154 30V20V0C148.477 0 144 4.47715 144 10V20V40ZM166 40C160.477 40 156 35.5228 156 30V20V0C161.523 0 166 4.47715 166 10V20V40Z" fill="rgb(39, 12, 27)" />
  <path fill-rule="evenodd" clip-rule="evenodd" d="M168 40C173.523 40 178 35.5228 178 30V20V0C172.477 0 168 4.47715 168 10V20V40ZM190 40C184.477 40 180 35.5228 180 30V20V0C185.523 0 190 4.47715 190 10V20V40Z" fill="rgb(39, 12, 27)" />
  <path fill-rule="evenodd" clip-rule="evenodd" d="M192 40C197.523 40 202 35.5228 202 30V20V0C196.477 0 192 4.47715 192 10V20V40ZM214 40C208.477 40 204 35.5228 204 30V20V0C209.523 0 214 4.47715 214 10V20V40Z" fill="rgb(39, 12, 27)" />
  <path fill-rule="evenodd" clip-rule="evenodd" d="M216 40C221.523 40 226 35.5228 226 30V20V0C220.477 0 216 4.47715 216 10V20V40ZM238 40C232.477 40 228 35.5228 228 30V20V0C233.523 0 238 4.47715 238 10V20V40Z" fill="rgb(39, 12, 27)" />
  <path fill-rule="evenodd" clip-rule="evenodd" d="M240 40C245.523 40 250 35.5228 250 30V20V0C244.477 0 240 4.47715 240 10V20V40ZM262 40C256.477 40 252 35.5228 252 30V20V0C257.523 0 262 4.47715 262 10V20V40Z" fill="rgb(39, 12, 27)" />
  <path fill-rule="evenodd" clip-rule="evenodd" d="M264 40C269.523 40 274 35.5228 274 30V20V0C268.477 0 264 4.47715 264 10V20V40ZM286 40C280.477 40 276 35.5228 276 30V20V0C281.523 0 286 4.47715 286 10V20V40Z" fill="rgb(39, 12, 27)" />
  <path fill-rule="evenodd" clip-rule="evenodd" d="M288 40C293.523 40 298 35.5228 298 30V20V0C292.477 0 288 4.47715 288 10V20V40ZM310 40C304.477 40 300 35.5228 300 30V20V0C305.523 0 310 4.47715 310 10V20V40Z" fill="rgb(39, 12, 27)" />
  <path fill-rule="evenodd" clip-rule="evenodd" d="M312 40C317.523 40 322 35.5228 322 30V20V0C316.477 0 312 4.47715 312 10V20V40ZM334 40C328.477 40 324 35.5228 324 30V20V0C329.523 0 334 4.47715 334 10V20V40Z" fill="rgb(39, 12, 27)" />
  <path fill-rule="evenodd" clip-rule="evenodd" d="M336 40C341.523 40 346 35.5228 346 30V20V0C340.477 0 336 4.47715 336 10V20V40ZM358 40C352.477 40 348 35.5228 348 30V20V0C353.523 0 358 4.47715 358 10V20V40Z" fill="rgb(39, 12, 27)" />
  <path fill-rule="evenodd" clip-rule="evenodd" d="M360 40C365.523 40 370 35.5228 370 30V20V0C364.477 0 360 4.47715 360 10V20V40ZM382 40C376.477 40 372 35.5228 372 30V20V0C377.523 0 382 4.47715 382 10V20V40Z" fill="rgb(39, 12, 27)" />
  <path fill-rule="evenodd" clip-rule="evenodd" d="M384 40C389.523 40 394 35.5228 394 30V20V0C388.477 0 384 4.47715 384 10V20V40ZM406 40C400.477 40 396 35.5228 396 30V20V0C401.523 0 406 4.47715 406 10V20V40Z" fill="rgb(39, 12, 27)" />
  <path fill-rule="evenodd" clip-rule="evenodd" d="M408 40C413.523 40 418 35.5228 418 30V20V0C412.477 0 408 4.47715 408 10V20V40ZM430 40C424.477 40 420 35.5228 420 30V20V0C425.523 0 430 4.47715 430 10V20V40Z" fill="rgb(39, 12, 27)" />
  <path fill-rule="evenodd" clip-rule="evenodd" d="M432 40C437.523 40 442 35.5228 442 30V20V0C436.477 0 432 4.47715 432 10V20V40ZM454 40C448.477 40 444 35.5228 444 30V20V0C449.523 0 454 4.47715 454 10V20V40Z" fill="rgb(39, 12, 27)" />
  <path fill-rule="evenodd" clip-rule="evenodd" d="M456 40C461.523 40 466 35.5228 466 30V20V0C460.477 0 456 4.47715 456 10V20V40ZM478 40C472.477 40 468 35.5228 468 30V20V0C473.523 0 478 4.47715 478 10V20V40Z" fill="rgb(39, 12, 27)" />
  <path fill-rule="evenodd" clip-rule="evenodd" d="M480 40C485.523 40 490 35.5228 490 30V20V0C484.477 0 480 4.47715 480 10V20V40ZM502 40C496.477 40 492 35.5228 492 30V20V0C497.523 0 502 4.47715 502 10V20V40Z" fill="rgb(39, 12, 27)" />
  <path fill-rule="evenodd" clip-rule="evenodd" d="M0 80C5.52285 80 10 75.5228 10 70V60V40C4.47715 40 0 44.4772 0 50V60V80ZM22 80C16.4772 80 12 75.5228 12 70V60V40C17.5228 40 22 44.4772 22 50V60V80Z" fill="rgb(39, 12, 27)" />
  <path fill-rule="evenodd" clip-rule="evenodd" d="M24 80C29.5228 80 34 75.5228 34 70V60V40C28.4772 40 24 44.4772 24 50V60V80ZM46 80C40.4772 80 36 75.5228 36 70V60V40C41.5228 40 46 44.4772 46 50V60V80Z" fill="rgb(39, 12, 27)" />
  <path fill-rule="evenodd" clip-rule="evenodd" d="M48 80C53.5228 80 58 75.5228 58 70V60V40C52.4772 40 48 44.4772 48 50V60V80ZM70 80C64.4772 80 60 75.5228 60 70V60V40C65.5228 40 70 44.4772 70 50V60V80Z" fill="rgb(39, 12, 27)" />
  <path fill-rule="evenodd" clip-rule="evenodd" d="M72 80C77.5228 80 82 75.5228 82 70V60V40C76.4772 40 72 44.4772 72 50V60V80ZM94 80C88.4772 80 84 75.5228 84 70V60V40C89.5228 40 94 44.4772 94 50V60V80Z" fill="rgb(39, 12, 27)" />
  <path fill-rule="evenodd" clip-rule="evenodd" d="M96 80C101.523 80 106 75.5228 106 70V60V40C100.477 40 96 44.4772 96 50V60V80ZM118 80C112.477 80 108 75.5228 108 70V60V40C113.523 40 118 44.4772 118 50V60V80Z" fill="rgb(39, 12, 27)" />
  <path fill-rule="evenodd" clip-rule="evenodd" d="M120 80C125.523 80 130 75.5228 130 70V60V40C124.477 40 120 44.4772 120 50V60V80ZM142 80C136.477 80 132 75.5228 132 70V60V40C137.523 40 142 44.4772 142 50V60V80Z" fill="rgb(39, 12, 27)" />
  <path fill-rule="evenodd" clip-rule="evenodd" d="M144 80C149.523 80 154 75.5228 154 70V60V40C148.477 40 144 44.4772 144 50V60V80ZM166 80C160.477 80 156 75.5228 156 70V60V40C161.523 40 166 44.4772 166 50V60V80Z" fill="rgb(39, 12, 27)" />
  <path fill-rule="evenodd" clip-rule="evenodd" d="M168 80C173.523 80 178 75.5228 178 70V60V40C172.477 40 168 44.4772 168 50V60V80ZM190 80C184.477 80 180 75.5228 180 70V60V40C185.523 40 190 44.4772 190 50V60V80Z" fill="rgb(39, 12, 27)" />
  <path fill-rule="evenodd" clip-rule="evenodd" d="M192 80C197.523 80 202 75.5228 202 70V60V40C196.477 40 192 44.4772 192 50V60V80ZM214 80C208.477 80 204 75.5228 204 70V60V40C209.523 40 214 44.4772 214 50V60V80Z" fill="rgb(39, 12, 27)" />
  <path fill-rule="evenodd" clip-rule="evenodd" d="M216 80C221.523 80 226 75.5228 226 70V60V40C220.477 40 216 44.4772 216 50V60V80ZM238 80C232.477 80 228 75.5228 228 70V60V40C233.523 40 238 44.4772 238 50V60V80Z" fill="rgb(39, 12, 27)" />
  <path fill-rule="evenodd" clip-rule="evenodd" d="M240 80C245.523 80 250 75.5228 250 70V60V40C244.477 40 240 44.4772 240 50V60V80ZM262 80C256.477 80 252 75.5228 252 70V60V40C257.523 40 262 44.4772 262 50V60V80Z" fill="rgb(39, 12, 27)" />
  <path fill-rule="evenodd" clip-rule="evenodd" d="M264 80C269.523 80 274 75.5228 274 70V60V40C268.477 40 264 44.4772 264 50V60V80ZM286 80C280.477 80 276 75.5228 276 70V60V40C281.523 40 286 44.4772 286 50V60V80Z" fill="rgb(39, 12, 27)" />
  <path fill-rule="evenodd" clip-rule="evenodd" d="M288 80C293.523 80 298 75.5228 298 70V60V40C292.477 40 288 44.4772 288 50V60V80ZM310 80C304.477 80 300 75.5228 300 70V60V40C305.523 40 310 44.4772 310 50V60V80Z" fill="rgb(39, 12, 27)" />
  <path fill-rule="evenodd" clip-rule="evenodd" d="M312 80C317.523 80 322 75.5228 322 70V60V40C316.477 40 312 44.4772 312 50V60V80ZM334 80C328.477 80 324 75.5228 324 70V60V40C329.523 40 334 44.4772 334 50V60V80Z" fill="rgb(39, 12, 27)" />
  <path fill-rule="evenodd" clip-rule="evenodd" d="M336 80C341.523 80 346 75.5228 346 70V60V40C340.477 40 336 44.4772 336 50V60V80ZM358 80C352.477 80 348 75.5228 348 70V60V40C353.523 40 358 44.4772 358 50V60V80Z" fill="rgb(39, 12, 27)" />
  <path fill-rule="evenodd" clip-rule="evenodd" d="M360 80C365.523 80 370 75.5228 370 70V60V40C364.477 40 360 44.4772 360 50V60V80ZM382 80C376.477 80 372 75.5228 372 70V60V40C377.523 40 382 44.4772 382 50V60V80Z" fill="rgb(39, 12, 27)" />
  <path fill-rule="evenodd" clip-rule="evenodd" d="M384 80C389.523 80 394 75.5228 394 70V60V40C388.477 40 384 44.4772 384 50V60V80ZM406 80C400.477 80 396 75.5228 396 70V60V40C401.523 40 406 44.4772 406 50V60V80Z" fill="rgb(39, 12, 27)" />
  <path fill-rule="evenodd" clip-rule="evenodd" d="M408 80C413.523 80 418 75.5228 418 70V60V40C412.477 40 408 44.4772 408 50V60V80ZM430 80C424.477 80 420 75.5228 420 70V60V40C425.523 40 430 44.4772 430 50V60V80Z" fill="rgb(39, 12, 27)" />
  <path fill-rule="evenodd" clip-rule="evenodd" d="M432 80C437.523 80 442 75.5228 442 70V60V40C436.477 40 432 44.4772 432 50V60V80ZM454 80C448.477 80 444 75.5228 444 70V60V40C449.523 40 454 44.4772 454 50V60V80Z" fill="rgb(39, 12, 27)" />
  <path fill-rule="evenodd" clip-rule="evenodd" d="M456 80C461.523 80 466 75.5228 466 70V60V40C460.477 40 456 44.4772 456 50V60V80ZM478 80C472.477 80 468 75.5228 468 70V60V40C473.523 40 478 44.4772 478 50V60V80Z" fill="rgb(39, 12, 27)" />
  <path fill-rule="evenodd" clip-rule="evenodd" d="M480 80C485.523 80 490 75.5228 490 70V60V40C484.477 40 480 44.4772 480 50V60V80ZM502 80C496.477 80 492 75.5228 492 70V60V40C497.523 40 502 44.4772 502 50V60V80Z" fill="rgb(39, 12, 27)" />
  <path fill-rule="evenodd" clip-rule="evenodd" d="M0 120C5.52285 120 10 115.523 10 110V100V80C4.47715 80 0 84.4772 0 90V100V120ZM22 120C16.4772 120 12 115.523 12 110V100V80C17.5228 80 22 84.4772 22 90V100V120Z" fill="rgb(39, 12, 27)" />
  <path fill-rule="evenodd" clip-rule="evenodd" d="M24 120C29.5228 120 34 115.523 34 110V100V80C28.4772 80 24 84.4772 24 90V100V120ZM46 120C40.4772 120 36 115.523 36 110V100V80C41.5228 80 46 84.4772 46 90V100V120Z" fill="rgb(39, 12, 27)" />
  <path fill-rule="evenodd" clip-rule="evenodd" d="M48 120C53.5228 120 58 115.523 58 110V100V80C52.4772 80 48 84.4772 48 90V100V120ZM70 120C64.4772 120 60 115.523 60 110V100V80C65.5228 80 70 84.4772 70 90V100V120Z" fill="rgb(39, 12, 27)" />
  <path fill-rule="evenodd" clip-rule="evenodd" d="M72 120C77.5228 120 82 115.523 82 110V100V80C76.4772 80 72 84.4772 72 90V100V120ZM94 120C88.4772 120 84 115.523 84 110V100V80C89.5228 80 94 84.4772 94 90V100V120Z" fill="rgb(39, 12, 27)" />
  <path fill-rule="evenodd" clip-rule="evenodd" d="M96 120C101.523 120 106 115.523 106 110V100V80C100.477 80 96 84.4772 96 90V100V120ZM118 120C112.477 120 108 115.523 108 110V100V80C113.523 80 118 84.4772 118 90V100V120Z" fill="rgb(39, 12, 27)" />
  <path fill-rule="evenodd" clip-rule="evenodd" d="M120 120C125.523 120 130 115.523 130 110V100V80C124.477 80 120 84.4772 120 90V100V120ZM142 120C136.477 120 132 115.523 132 110V100V80C137.523 80 142 84.4772 142 90V100V120Z" fill="rgb(39, 12, 27)" />
  <path fill-rule="evenodd" clip-rule="evenodd" d="M144 120C149.523 120 154 115.523 154 110V100V80C148.477 80 144 84.4772 144 90V100V120ZM166 120C160.477 120 156 115.523 156 110V100V80C161.523 80 166 84.4772 166 90V100V120Z" fill="rgb(39, 12, 27)" />
  <path fill-rule="evenodd" clip-rule="evenodd" d="M168 120C173.523 120 178 115.523 178 110V100V80C172.477 80 168 84.4772 168 90V100V120ZM190 120C184.477 120 180 115.523 180 110V100V80C185.523 80 190 84.4772 190 90V100V120Z" fill="rgb(39, 12, 27)" />
  <path fill-rule="evenodd" clip-rule="evenodd" d="M192 120C197.523 120 202 115.523 202 110V100V80C196.477 80 192 84.4772 192 90V100V120ZM214 120C208.477 120 204 115.523 204 110V100V80C209.523 80 214 84.4772 214 90V100V120Z" fill="rgb(39, 12, 27)" />
  <path fill-rule="evenodd" clip-rule="evenodd" d="M216 120C221.523 120 226 115.523 226 110V100V80C220.477 80 216 84.4772 216 90V100V120ZM238 120C232.477 120 228 115.523 228 110V100V80C233.523 80 238 84.4772 238 90V100V120Z" fill="rgb(39, 12, 27)" />
  <path fill-rule="evenodd" clip-rule="evenodd" d="M240 120C245.523 120 250 115.523 250 110V100V80C244.477 80 240 84.4772 240 90V100V120ZM262 120C256.477 120 252 115.523 252 110V100V80C257.523 80 262 84.4772 262 90V100V120Z" fill="rgb(39, 12, 27)" />
  <path fill-rule="evenodd" clip-rule="evenodd" d="M264 120C269.523 120 274 115.523 274 110V100V80C268.477 80 264 84.4772 264 90V100V120ZM286 120C280.477 120 276 115.523 276 110V100V80C281.523 80 286 84.4772 286 90V100V120Z" fill="rgb(39, 12, 27)" />
  <path fill-rule="evenodd" clip-rule="evenodd" d="M288 120C293.523 120 298 115.523 298 110V100V80C292.477 80 288 84.4772 288 90V100V120ZM310 120C304.477 120 300 115.523 300 110V100V80C305.523 80 310 84.4772 310 90V100V120Z" fill="rgb(39, 12, 27)" />
  <path fill-rule="evenodd" clip-rule="evenodd" d="M312 120C317.523 120 322 115.523 322 110V100V80C316.477 80 312 84.4772 312 90V100V120ZM334 120C328.477 120 324 115.523 324 110V100V80C329.523 80 334 84.4772 334 90V100V120Z" fill="rgb(39, 12, 27)" />
  <path fill-rule="evenodd" clip-rule="evenodd" d="M336 120C341.523 120 346 115.523 346 110V100V80C340.477 80 336 84.4772 336 90V100V120ZM358 120C352.477 120 348 115.523 348 110V100V80C353.523 80 358 84.4772 358 90V100V120Z" fill="rgb(39, 12, 27)" />
  <path fill-rule="evenodd" clip-rule="evenodd" d="M360 120C365.523 120 370 115.523 370 110V100V80C364.477 80 360 84.4772 360 90V100V120ZM382 120C376.477 120 372 115.523 372 110V100V80C377.523 80 382 84.4772 382 90V100V120Z" fill="rgb(39, 12, 27)" />
  <path fill-rule="evenodd" clip-rule="evenodd" d="M384 120C389.523 120 394 115.523 394 110V100V80C388.477 80 384 84.4772 384 90V100V120ZM406 120C400.477 120 396 115.523 396 110V100V80C401.523 80 406 84.4772 406 90V100V120Z" fill="rgb(39, 12, 27)" />
  <path fill-rule="evenodd" clip-rule="evenodd" d="M408 120C413.523 120 418 115.523 418 110V100V80C412.477 80 408 84.4772 408 90V100V120ZM430 120C424.477 120 420 115.523 420 110V100V80C425.523 80 430 84.4772 430 90V100V120Z" fill="rgb(39, 12, 27)" />
  <path fill-rule="evenodd" clip-rule="evenodd" d="M432 120C437.523 120 442 115.523 442 110V100V80C436.477 80 432 84.4772 432 90V100V120ZM454 120C448.477 120 444 115.523 444 110V100V80C449.523 80 454 84.4772 454 90V100V120Z" fill="rgb(39, 12, 27)" />
  <path fill-rule="evenodd" clip-rule="evenodd" d="M456 120C461.523 120 466 115.523 466 110V100V80C460.477 80 456 84.4772 456 90V100V120ZM478 120C472.477 120 468 115.523 468 110V100V80C473.523 80 478 84.4772 478 90V100V120Z" fill="rgb(39, 12, 27)" />
  <path fill-rule="evenodd" clip-rule="evenodd" d="M480 120C485.523 120 490 115.523 490 110V100V80C484.477 80 480 84.4772 480 90V100V120ZM502 120C496.477 120 492 115.523 492 110V100V80C497.523 80 502 84.4772 502 90V100V120Z" fill="rgb(39, 12, 27)" />
  <path fill-rule="evenodd" clip-rule="evenodd" d="M0 160C5.52285 160 10 155.523 10 150V140V120C4.47715 120 0 124.477 0 130V140V160ZM22 160C16.4772 160 12 155.523 12 150V140V120C17.5228 120 22 124.477 22 130V140V160Z" fill="rgb(39, 12, 27)" />
  <path fill-rule="evenodd" clip-rule="evenodd" d="M24 160C29.5228 160 34 155.523 34 150V140V120C28.4772 120 24 124.477 24 130V140V160ZM46 160C40.4772 160 36 155.523 36 150V140V120C41.5228 120 46 124.477 46 130V140V160Z" fill="rgb(39, 12, 27)" />
  <path fill-rule="evenodd" clip-rule="evenodd" d="M48 160C53.5228 160 58 155.523 58 150V140V120C52.4772 120 48 124.477 48 130V140V160ZM70 160C64.4772 160 60 155.523 60 150V140V120C65.5228 120 70 124.477 70 130V140V160Z" fill="rgb(39, 12, 27)" />
  <path fill-rule="evenodd" clip-rule="evenodd" d="M72 160C77.5228 160 82 155.523 82 150V140V120C76.4772 120 72 124.477 72 130V140V160ZM94 160C88.4772 160 84 155.523 84 150V140V120C89.5228 120 94 124.477 94 130V140V160Z" fill="rgb(39, 12, 27)" />
  <path fill-rule="evenodd" clip-rule="evenodd" d="M96 160C101.523 160 106 155.523 106 150V140V120C100.477 120 96 124.477 96 130V140V160ZM118 160C112.477 160 108 155.523 108 150V140V120C113.523 120 118 124.477 118 130V140V160Z" fill="rgb(39, 12, 27)" />
  <path fill-rule="evenodd" clip-rule="evenodd" d="M120 160C125.523 160 130 155.523 130 150V140V120C124.477 120 120 124.477 120 130V140V160ZM142 160C136.477 160 132 155.523 132 150V140V120C137.523 120 142 124.477 142 130V140V160Z" fill="rgb(39, 12, 27)" />
  <path fill-rule="evenodd" clip-rule="evenodd" d="M144 160C149.523 160 154 155.523 154 150V140V120C148.477 120 144 124.477 144 130V140V160ZM166 160C160.477 160 156 155.523 156 150V140V120C161.523 120 166 124.477 166 130V140V160Z" fill="rgb(39, 12, 27)" />
  <path fill-rule="evenodd" clip-rule="evenodd" d="M168 160C173.523 160 178 155.523 178 150V140V120C172.477 120 168 124.477 168 130V140V160ZM190 160C184.477 160 180 155.523 180 150V140V120C185.523 120 190 124.477 190 130V140V160Z" fill="rgb(39, 12, 27)" />
  <path fill-rule="evenodd" clip-rule="evenodd" d="M192 160C197.523 160 202 155.523 202 150V140V120C196.477 120 192 124.477 192 130V140V160ZM214 160C208.477 160 204 155.523 204 150V140V120C209.523 120 214 124.477 214 130V140V160Z" fill="rgb(39, 12, 27)" />
  <path fill-rule="evenodd" clip-rule="evenodd" d="M216 160C221.523 160 226 155.523 226 150V140V120C220.477 120 216 124.477 216 130V140V160ZM238 160C232.477 160 228 155.523 228 150V140V120C233.523 120 238 124.477 238 130V140V160Z" fill="rgb(39, 12, 27)" />
  <path fill-rule="evenodd" clip-rule="evenodd" d="M240 160C245.523 160 250 155.523 250 150V140V120C244.477 120 240 124.477 240 130V140V160ZM262 160C256.477 160 252 155.523 252 150V140V120C257.523 120 262 124.477 262 130V140V160Z" fill="rgb(39, 12, 27)" />
  <path fill-rule="evenodd" clip-rule="evenodd" d="M264 160C269.523 160 274 155.523 274 150V140V120C268.477 120 264 124.477 264 130V140V160ZM286 160C280.477 160 276 155.523 276 150V140V120C281.523 120 286 124.477 286 130V140V160Z" fill="rgb(39, 12, 27)" />
  <path fill-rule="evenodd" clip-rule="evenodd" d="M288 160C293.523 160 298 155.523 298 150V140V120C292.477 120 288 124.477 288 130V140V160ZM310 160C304.477 160 300 155.523 300 150V140V120C305.523 120 310 124.477 310 130V140V160Z" fill="rgb(39, 12, 27)" />
  <path fill-rule="evenodd" clip-rule="evenodd" d="M312 160C317.523 160 322 155.523 322 150V140V120C316.477 120 312 124.477 312 130V140V160ZM334 160C328.477 160 324 155.523 324 150V140V120C329.523 120 334 124.477 334 130V140V160Z" fill="rgb(39, 12, 27)" />
  <path fill-rule="evenodd" clip-rule="evenodd" d="M336 160C341.523 160 346 155.523 346 150V140V120C340.477 120 336 124.477 336 130V140V160ZM358 160C352.477 160 348 155.523 348 150V140V120C353.523 120 358 124.477 358 130V140V160Z" fill="rgb(39, 12, 27)" />
  <path fill-rule="evenodd" clip-rule="evenodd" d="M360 160C365.523 160 370 155.523 370 150V140V120C364.477 120 360 124.477 360 130V140V160ZM382 160C376.477 160 372 155.523 372 150V140V120C377.523 120 382 124.477 382 130V140V160Z" fill="rgb(39, 12, 27)" />
  <path fill-rule="evenodd" clip-rule="evenodd" d="M384 160C389.523 160 394 155.523 394 150V140V120C388.477 120 384 124.477 384 130V140V160ZM406 160C400.477 160 396 155.523 396 150V140V120C401.523 120 406 124.477 406 130V140V160Z" fill="rgb(39, 12, 27)" />
  <path fill-rule="evenodd" clip-rule="evenodd" d="M408 160C413.523 160 418 155.523 418 150V140V120C412.477 120 408 124.477 408 130V140V160ZM430 160C424.477 160 420 155.523 420 150V140V120C425.523 120 430 124.477 430 130V140V160Z" fill="rgb(39, 12, 27)" />
  <path fill-rule="evenodd" clip-rule="evenodd" d="M432 160C437.523 160 442 155.523 442 150V140V120C436.477 120 432 124.477 432 130V140V160ZM454 160C448.477 160 444 155.523 444 150V140V120C449.523 120 454 124.477 454 130V140V160Z" fill="rgb(39, 12, 27)" />
  <path fill-rule="evenodd" clip-rule="evenodd" d="M456 160C461.523 160 466 155.523 466 150V140V120C460.477 120 456 124.477 456 130V140V160ZM478 160C472.477 160 468 155.523 468 150V140V120C473.523 120 478 124.477 478 130V140V160Z" fill="rgb(39, 12, 27)" />
  <path fill-rule="evenodd" clip-rule="evenodd" d="M480 160C485.523 160 490 155.523 490 150V140V120C484.477 120 480 124.477 480 130V140V160ZM502 160C496.477 160 492 155.523 492 150V140V120C497.523 120 502 124.477 502 130V140V160Z" fill="rgb(39, 12, 27)" />
  <path fill-rule="evenodd" clip-rule="evenodd" d="M0 200C5.52285 200 10 195.523 10 190V180V160C4.47715 160 0 164.477 0 170V180V200ZM22 200C16.4772 200 12 195.523 12 190V180V160C17.5228 160 22 164.477 22 170V180V200Z" fill="rgb(39, 12, 27)" />
  <path fill-rule="evenodd" clip-rule="evenodd" d="M24 200C29.5228 200 34 195.523 34 190V180V160C28.4772 160 24 164.477 24 170V180V200ZM46 200C40.4772 200 36 195.523 36 190V180V160C41.5228 160 46 164.477 46 170V180V200Z" fill="rgb(39, 12, 27)" />
  <path fill-rule="evenodd" clip-rule="evenodd" d="M48 200C53.5228 200 58 195.523 58 190V180V160C52.4772 160 48 164.477 48 170V180V200ZM70 200C64.4772 200 60 195.523 60 190V180V160C65.5228 160 70 164.477 70 170V180V200Z" fill="rgb(39, 12, 27)" />
  <path fill-rule="evenodd" clip-rule="evenodd" d="M72 200C77.5228 200 82 195.523 82 190V180V160C76.4772 160 72 164.477 72 170V180V200ZM94 200C88.4772 200 84 195.523 84 190V180V160C89.5228 160 94 164.477 94 170V180V200Z" fill="rgb(39, 12, 27)" />
  <path fill-rule="evenodd" clip-rule="evenodd" d="M96 200C101.523 200 106 195.523 106 190V180V160C100.477 160 96 164.477 96 170V180V200ZM118 200C112.477 200 108 195.523 108 190V180V160C113.523 160 118 164.477 118 170V180V200Z" fill="rgb(39, 12, 27)" />
  <path fill-rule="evenodd" clip-rule="evenodd" d="M120 200C125.523 200 130 195.523 130 190V180V160C124.477 160 120 164.477 120 170V180V200ZM142 200C136.477 200 132 195.523 132 190V180V160C137.523 160 142 164.477 142 170V180V200Z" fill="rgb(39, 12, 27)" />
  <path fill-rule="evenodd" clip-rule="evenodd" d="M144 200C149.523 200 154 195.523 154 190V180V160C148.477 160 144 164.477 144 170V180V200ZM166 200C160.477 200 156 195.523 156 190V180V160C161.523 160 166 164.477 166 170V180V200Z" fill="rgb(39, 12, 27)" />
  <path fill-rule="evenodd" clip-rule="evenodd" d="M168 200C173.523 200 178 195.523 178 190V180V160C172.477 160 168 164.477 168 170V180V200ZM190 200C184.477 200 180 195.523 180 190V180V160C185.523 160 190 164.477 190 170V180V200Z" fill="rgb(39, 12, 27)" />
  <path fill-rule="evenodd" clip-rule="evenodd" d="M192 200C197.523 200 202 195.523 202 190V180V160C196.477 160 192 164.477 192 170V180V200ZM214 200C208.477 200 204 195.523 204 190V180V160C209.523 160 214 164.477 214 170V180V200Z" fill="rgb(39, 12, 27)" />
  <path fill-rule="evenodd" clip-rule="evenodd" d="M216 200C221.523 200 226 195.523 226 190V180V160C220.477 160 216 164.477 216 170V180V200ZM238 200C232.477 200 228 195.523 228 190V180V160C233.523 160 238 164.477 238 170V180V200Z" fill="rgb(39, 12, 27)" />
  <path fill-rule="evenodd" clip-rule="evenodd" d="M240 200C245.523 200 250 195.523 250 190V180V160C244.477 160 240 164.477 240 170V180V200ZM262 200C256.477 200 252 195.523 252 190V180V160C257.523 160 262 164.477 262 170V180V200Z" fill="rgb(39, 12, 27)" />
  <path fill-rule="evenodd" clip-rule="evenodd" d="M264 200C269.523 200 274 195.523 274 190V180V160C268.477 160 264 164.477 264 170V180V200ZM286 200C280.477 200 276 195.523 276 190V180V160C281.523 160 286 164.477 286 170V180V200Z" fill="rgb(39, 12, 27)" />
  <path fill-rule="evenodd" clip-rule="evenodd" d="M288 200C293.523 200 298 195.523 298 190V180V160C292.477 160 288 164.477 288 170V180V200ZM310 200C304.477 200 300 195.523 300 190V180V160C305.523 160 310 164.477 310 170V180V200Z" fill="rgb(39, 12, 27)" />
  <path fill-rule="evenodd" clip-rule="evenodd" d="M312 200C317.523 200 322 195.523 322 190V180V160C316.477 160 312 164.477 312 170V180V200ZM334 200C328.477 200 324 195.523 324 190V180V160C329.523 160 334 164.477 334 170V180V200Z" fill="rgb(39, 12, 27)" />
  <path fill-rule="evenodd" clip-rule="evenodd" d="M336 200C341.523 200 346 195.523 346 190V180V160C340.477 160 336 164.477 336 170V180V200ZM358 200C352.477 200 348 195.523 348 190V180V160C353.523 160 358 164.477 358 170V180V200Z" fill="rgb(39, 12, 27)" />
  <path fill-rule="evenodd" clip-rule="evenodd" d="M360 200C365.523 200 370 195.523 370 190V180V160C364.477 160 360 164.477 360 170V180V200ZM382 200C376.477 200 372 195.523 372 190V180V160C377.523 160 382 164.477 382 170V180V200Z" fill="rgb(39, 12, 27)" />
  <path fill-rule="evenodd" clip-rule="evenodd" d="M384 200C389.523 200 394 195.523 394 190V180V160C388.477 160 384 164.477 384 170V180V200ZM406 200C400.477 200 396 195.523 396 190V180V160C401.523 160 406 164.477 406 170V180V200Z" fill="rgb(39, 12, 27)" />
  <path fill-rule="evenodd" clip-rule="evenodd" d="M408 200C413.523 200 418 195.523 418 190V180V160C412.477 160 408 164.477 408 170V180V200ZM430 200C424.477 200 420 195.523 420 190V180V160C425.523 160 430 164.477 430 170V180V200Z" fill="rgb(39, 12, 27)" />
  <path fill-rule="evenodd" clip-rule="evenodd" d="M432 200C437.523 200 442 195.523 442 190V180V160C436.477 160 432 164.477 432 170V180V200ZM454 200C448.477 200 444 195.523 444 190V180V160C449.523 160 454 164.477 454 170V180V200Z" fill="rgb(39, 12, 27)" />
  <path fill-rule="evenodd" clip-rule="evenodd" d="M456 200C461.523 200 466 195.523 466 190V180V160C460.477 160 456 164.477 456 170V180V200ZM478 200C472.477 200 468 195.523 468 190V180V160C473.523 160 478 164.477 478 170V180V200Z" fill="rgb(39, 12, 27)" />
  <path fill-rule="evenodd" clip-rule="evenodd" d="M480 200C485.523 200 490 195.523 490 190V180V160C484.477 160 480 164.477 480 170V180V200ZM502 200C496.477 200 492 195.523 492 190V180V160C497.523 160 502 164.477 502 170V180V200Z" fill="rgb(39, 12, 27)" />
  <path fill-rule="evenodd" clip-rule="evenodd" d="M0 240C5.52285 240 10 235.523 10 230V220V200C4.47715 200 0 204.477 0 210V220V240ZM22 240C16.4772 240 12 235.523 12 230V220V200C17.5228 200 22 204.477 22 210V220V240Z" fill="rgb(39, 12, 27)" />
  <path fill-rule="evenodd" clip-rule="evenodd" d="M24 240C29.5228 240 34 235.523 34 230V220V200C28.4772 200 24 204.477 24 210V220V240ZM46 240C40.4772 240 36 235.523 36 230V220V200C41.5228 200 46 204.477 46 210V220V240Z" fill="rgb(39, 12, 27)" />
  <path fill-rule="evenodd" clip-rule="evenodd" d="M48 240C53.5228 240 58 235.523 58 230V220V200C52.4772 200 48 204.477 48 210V220V240ZM70 240C64.4772 240 60 235.523 60 230V220V200C65.5228 200 70 204.477 70 210V220V240Z" fill="rgb(39, 12, 27)" />
  <path fill-rule="evenodd" clip-rule="evenodd" d="M72 240C77.5228 240 82 235.523 82 230V220V200C76.4772 200 72 204.477 72 210V220V240ZM94 240C88.4772 240 84 235.523 84 230V220V200C89.5228 200 94 204.477 94 210V220V240Z" fill="rgb(39, 12, 27)" />
  <path fill-rule="evenodd" clip-rule="evenodd" d="M96 240C101.523 240 106 235.523 106 230V220V200C100.477 200 96 204.477 96 210V220V240ZM118 240C112.477 240 108 235.523 108 230V220V200C113.523 200 118 204.477 118 210V220V240Z" fill="rgb(39, 12, 27)" />
  <path fill-rule="evenodd" clip-rule="evenodd" d="M120 240C125.523 240 130 235.523 130 230V220V200C124.477 200 120 204.477 120 210V220V240ZM142 240C136.477 240 132 235.523 132 230V220V200C137.523 200 142 204.477 142 210V220V240Z" fill="rgb(39, 12, 27)" />
  <path fill-rule="evenodd" clip-rule="evenodd" d="M144 240C149.523 240 154 235.523 154 230V220V200C148.477 200 144 204.477 144 210V220V240ZM166 240C160.477 240 156 235.523 156 230V220V200C161.523 200 166 204.477 166 210V220V240Z" fill="rgb(39, 12, 27)" />
  <path fill-rule="evenodd" clip-rule="evenodd" d="M168 240C173.523 240 178 235.523 178 230V220V200C172.477 200 168 204.477 168 210V220V240ZM190 240C184.477 240 180 235.523 180 230V220V200C185.523 200 190 204.477 190 210V220V240Z" fill="rgb(39, 12, 27)" />
  <path fill-rule="evenodd" clip-rule="evenodd" d="M192 240C197.523 240 202 235.523 202 230V220V200C196.477 200 192 204.477 192 210V220V240ZM214 240C208.477 240 204 235.523 204 230V220V200C209.523 200 214 204.477 214 210V220V240Z" fill="rgb(39, 12, 27)" />
  <path fill-rule="evenodd" clip-rule="evenodd" d="M216 240C221.523 240 226 235.523 226 230V220V200C220.477 200 216 204.477 216 210V220V240ZM238 240C232.477 240 228 235.523 228 230V220V200C233.523 200 238 204.477 238 210V220V240Z" fill="rgb(39, 12, 27)" />
  <path fill-rule="evenodd" clip-rule="evenodd" d="M240 240C245.523 240 250 235.523 250 230V220V200C244.477 200 240 204.477 240 210V220V240ZM262 240C256.477 240 252 235.523 252 230V220V200C257.523 200 262 204.477 262 210V220V240Z" fill="rgb(39, 12, 27)" />
  <path fill-rule="evenodd" clip-rule="evenodd" d="M264 240C269.523 240 274 235.523 274 230V220V200C268.477 200 264 204.477 264 210V220V240ZM286 240C280.477 240 276 235.523 276 230V220V200C281.523 200 286 204.477 286 210V220V240Z" fill="rgb(39, 12, 27)" />
  <path fill-rule="evenodd" clip-rule="evenodd" d="M288 240C293.523 240 298 235.523 298 230V220V200C292.477 200 288 204.477 288 210V220V240ZM310 240C304.477 240 300 235.523 300 230V220V200C305.523 200 310 204.477 310 210V220V240Z" fill="rgb(39, 12, 27)" />
  <path fill-rule="evenodd" clip-rule="evenodd" d="M312 240C317.523 240 322 235.523 322 230V220V200C316.477 200 312 204.477 312 210V220V240ZM334 240C328.477 240 324 235.523 324 230V220V200C329.523 200 334 204.477 334 210V220V240Z" fill="rgb(39, 12, 27)" />
  <path fill-rule="evenodd" clip-rule="evenodd" d="M336 240C341.523 240 346 235.523 346 230V220V200C340.477 200 336 204.477 336 210V220V240ZM358 240C352.477 240 348 235.523 348 230V220V200C353.523 200 358 204.477 358 210V220V240Z" fill="rgb(39, 12, 27)" />
  <path fill-rule="evenodd" clip-rule="evenodd" d="M360 240C365.523 240 370 235.523 370 230V220V200C364.477 200 360 204.477 360 210V220V240ZM382 240C376.477 240 372 235.523 372 230V220V200C377.523 200 382 204.477 382 210V220V240Z" fill="rgb(39, 12, 27)" />
  <path fill-rule="evenodd" clip-rule="evenodd" d="M384 240C389.523 240 394 235.523 394 230V220V200C388.477 200 384 204.477 384 210V220V240ZM406 240C400.477 240 396 235.523 396 230V220V200C401.523 200 406 204.477 406 210V220V240Z" fill="rgb(39, 12, 27)" />
  <path fill-rule="evenodd" clip-rule="evenodd" d="M408 240C413.523 240 418 235.523 418 230V220V200C412.477 200 408 204.477 408 210V220V240ZM430 240C424.477 240 420 235.523 420 230V220V200C425.523 200 430 204.477 430 210V220V240Z" fill="rgb(39, 12, 27)" />
  <path fill-rule="evenodd" clip-rule="evenodd" d="M432 240C437.523 240 442 235.523 442 230V220V200C436.477 200 432 204.477 432 210V220V240ZM454 240C448.477 240 444 235.523 444 230V220V200C449.523 200 454 204.477 454 210V220V240Z" fill="rgb(39, 12, 27)" />
  <path fill-rule="evenodd" clip-rule="evenodd" d="M456 240C461.523 240 466 235.523 466 230V220V200C460.477 200 456 204.477 456 210V220V240ZM478 240C472.477 240 468 235.523 468 230V220V200C473.523 200 478 204.477 478 210V220V240Z" fill="rgb(39, 12, 27)" />
  <path fill-rule="evenodd" clip-rule="evenodd" d="M480 240C485.523 240 490 235.523 490 230V220V200C484.477 200 480 204.477 480 210V220V240ZM502 240C496.477 240 492 235.523 492 230V220V200C497.523 200 502 204.477 502 210V220V240Z" fill="rgb(39, 12, 27)" />
  <path fill-rule="evenodd" clip-rule="evenodd" d="M0 280C5.52285 280 10 275.523 10 270V260V240C4.47715 240 0 244.477 0 250V260V280ZM22 280C16.4772 280 12 275.523 12 270V260V240C17.5228 240 22 244.477 22 250V260V280Z" fill="rgb(39, 12, 27)" />
  <path fill-rule="evenodd" clip-rule="evenodd" d="M24 280C29.5228 280 34 275.523 34 270V260V240C28.4772 240 24 244.477 24 250V260V280ZM46 280C40.4772 280 36 275.523 36 270V260V240C41.5228 240 46 244.477 46 250V260V280Z" fill="rgb(39, 12, 27)" />
  <path fill-rule="evenodd" clip-rule="evenodd" d="M48 280C53.5228 280 58 275.523 58 270V260V240C52.4772 240 48 244.477 48 250V260V280ZM70 280C64.4772 280 60 275.523 60 270V260V240C65.5228 240 70 244.477 70 250V260V280Z" fill="rgb(39, 12, 27)" />
  <path fill-rule="evenodd" clip-rule="evenodd" d="M72 280C77.5228 280 82 275.523 82 270V260V240C76.4772 240 72 244.477 72 250V260V280ZM94 280C88.4772 280 84 275.523 84 270V260V240C89.5228 240 94 244.477 94 250V260V280Z" fill="rgb(39, 12, 27)" />
  <path fill-rule="evenodd" clip-rule="evenodd" d="M96 280C101.523 280 106 275.523 106 270V260V240C100.477 240 96 244.477 96 250V260V280ZM118 280C112.477 280 108 275.523 108 270V260V240C113.523 240 118 244.477 118 250V260V280Z" fill="rgb(39, 12, 27)" />
  <path fill-rule="evenodd" clip-rule="evenodd" d="M120 280C125.523 280 130 275.523 130 270V260V240C124.477 240 120 244.477 120 250V260V280ZM142 280C136.477 280 132 275.523 132 270V260V240C137.523 240 142 244.477 142 250V260V280Z" fill="rgb(39, 12, 27)" />
  <path fill-rule="evenodd" clip-rule="evenodd" d="M144 280C149.523 280 154 275.523 154 270V260V240C148.477 240 144 244.477 144 250V260V280ZM166 280C160.477 280 156 275.523 156 270V260V240C161.523 240 166 244.477 166 250V260V280Z" fill="rgb(39, 12, 27)" />
  <path fill-rule="evenodd" clip-rule="evenodd" d="M168 280C173.523 280 178 275.523 178 270V260V240C172.477 240 168 244.477 168 250V260V280ZM190 280C184.477 280 180 275.523 180 270V260V240C185.523 240 190 244.477 190 250V260V280Z" fill="rgb(39, 12, 27)" />
  <path fill-rule="evenodd" clip-rule="evenodd" d="M192 280C197.523 280 202 275.523 202 270V260V240C196.477 240 192 244.477 192 250V260V280ZM214 280C208.477 280 204 275.523 204 270V260V240C209.523 240 214 244.477 214 250V260V280Z" fill="rgb(39, 12, 27)" />
  <path fill-rule="evenodd" clip-rule="evenodd" d="M216 280C221.523 280 226 275.523 226 270V260V240C220.477 240 216 244.477 216 250V260V280ZM238 280C232.477 280 228 275.523 228 270V260V240C233.523 240 238 244.477 238 250V260V280Z" fill="rgb(39, 12, 27)" />
  <path fill-rule="evenodd" clip-rule="evenodd" d="M240 280C245.523 280 250 275.523 250 270V260V240C244.477 240 240 244.477 240 250V260V280ZM262 280C256.477 280 252 275.523 252 270V260V240C257.523 240 262 244.477 262 250V260V280Z" fill="rgb(39, 12, 27)" />
  <path fill-rule="evenodd" clip-rule="evenodd" d="M264 280C269.523 280 274 275.523 274 270V260V240C268.477 240 264 244.477 264 250V260V280ZM286 280C280.477 280 276 275.523 276 270V260V240C281.523 240 286 244.477 286 250V260V280Z" fill="rgb(39, 12, 27)" />
  <path fill-rule="evenodd" clip-rule="evenodd" d="M288 280C293.523 280 298 275.523 298 270V260V240C292.477 240 288 244.477 288 250V260V280ZM310 280C304.477 280 300 275.523 300 270V260V240C305.523 240 310 244.477 310 250V260V280Z" fill="rgb(39, 12, 27)" />
  <path fill-rule="evenodd" clip-rule="evenodd" d="M312 280C317.523 280 322 275.523 322 270V260V240C316.477 240 312 244.477 312 250V260V280ZM334 280C328.477 280 324 275.523 324 270V260V240C329.523 240 334 244.477 334 250V260V280Z" fill="rgb(39, 12, 27)" />
  <path fill-rule="evenodd" clip-rule="evenodd" d="M336 280C341.523 280 346 275.523 346 270V260V240C340.477 240 336 244.477 336 250V260V280ZM358 280C352.477 280 348 275.523 348 270V260V240C353.523 240 358 244.477 358 250V260V280Z" fill="rgb(39, 12, 27)" />
  <path fill-rule="evenodd" clip-rule="evenodd" d="M360 280C365.523 280 370 275.523 370 270V260V240C364.477 240 360 244.477 360 250V260V280ZM382 280C376.477 280 372 275.523 372 270V260V240C377.523 240 382 244.477 382 250V260V280Z" fill="rgb(39, 12, 27)" />
  <path fill-rule="evenodd" clip-rule="evenodd" d="M384 280C389.523 280 394 275.523 394 270V260V240C388.477 240 384 244.477 384 250V260V280ZM406 280C400.477 280 396 275.523 396 270V260V240C401.523 240 406 244.477 406 250V260V280Z" fill="rgb(39, 12, 27)" />
  <path fill-rule="evenodd" clip-rule="evenodd" d="M408 280C413.523 280 418 275.523 418 270V260V240C412.477 240 408 244.477 408 250V260V280ZM430 280C424.477 280 420 275.523 420 270V260V240C425.523 240 430 244.477 430 250V260V280Z" fill="rgb(39, 12, 27)" />
  <path fill-rule="evenodd" clip-rule="evenodd" d="M432 280C437.523 280 442 275.523 442 270V260V240C436.477 240 432 244.477 432 250V260V280ZM454 280C448.477 280 444 275.523 444 270V260V240C449.523 240 454 244.477 454 250V260V280Z" fill="rgb(39, 12, 27)" />
  <path fill-rule="evenodd" clip-rule="evenodd" d="M456 280C461.523 280 466 275.523 466 270V260V240C460.477 240 456 244.477 456 250V260V280ZM478 280C472.477 280 468 275.523 468 270V260V240C473.523 240 478 244.477 478 250V260V280Z" fill="rgb(39, 12, 27)" />
  <path fill-rule="evenodd" clip-rule="evenodd" d="M480 280C485.523 280 490 275.523 490 270V260V240C484.477 240 480 244.477 480 250V260V280ZM502 280C496.477 280 492 275.523 492 270V260V240C497.523 240 502 244.477 502 250V260V280Z" fill="rgb(39, 12, 27)" />
  <path fill-rule="evenodd" clip-rule="evenodd" d="M0 320C5.52285 320 10 315.523 10 310V300V280C4.47715 280 0 284.477 0 290V300V320ZM22 320C16.4772 320 12 315.523 12 310V300V280C17.5228 280 22 284.477 22 290V300V320Z" fill="rgb(39, 12, 27)" />
  <path fill-rule="evenodd" clip-rule="evenodd" d="M24 320C29.5228 320 34 315.523 34 310V300V280C28.4772 280 24 284.477 24 290V300V320ZM46 320C40.4772 320 36 315.523 36 310V300V280C41.5228 280 46 284.477 46 290V300V320Z" fill="rgb(39, 12, 27)" />
  <path fill-rule="evenodd" clip-rule="evenodd" d="M48 320C53.5228 320 58 315.523 58 310V300V280C52.4772 280 48 284.477 48 290V300V320ZM70 320C64.4772 320 60 315.523 60 310V300V280C65.5228 280 70 284.477 70 290V300V320Z" fill="rgb(39, 12, 27)" />
  <path fill-rule="evenodd" clip-rule="evenodd" d="M72 320C77.5228 320 82 315.523 82 310V300V280C76.4772 280 72 284.477 72 290V300V320ZM94 320C88.4772 320 84 315.523 84 310V300V280C89.5228 280 94 284.477 94 290V300V320Z" fill="rgb(39, 12, 27)" />
  <path fill-rule="evenodd" clip-rule="evenodd" d="M96 320C101.523 320 106 315.523 106 310V300V280C100.477 280 96 284.477 96 290V300V320ZM118 320C112.477 320 108 315.523 108 310V300V280C113.523 280 118 284.477 118 290V300V320Z" fill="rgb(39, 12, 27)" />
  <path fill-rule="evenodd" clip-rule="evenodd" d="M120 320C125.523 320 130 315.523 130 310V300V280C124.477 280 120 284.477 120 290V300V320ZM142 320C136.477 320 132 315.523 132 310V300V280C137.523 280 142 284.477 142 290V300V320Z" fill="rgb(39, 12, 27)" />
  <path fill-rule="evenodd" clip-rule="evenodd" d="M144 320C149.523 320 154 315.523 154 310V300V280C148.477 280 144 284.477 144 290V300V320ZM166 320C160.477 320 156 315.523 156 310V300V280C161.523 280 166 284.477 166 290V300V320Z" fill="rgb(39, 12, 27)" />
  <path fill-rule="evenodd" clip-rule="evenodd" d="M168 320C173.523 320 178 315.523 178 310V300V280C172.477 280 168 284.477 168 290V300V320ZM190 320C184.477 320 180 315.523 180 310V300V280C185.523 280 190 284.477 190 290V300V320Z" fill="rgb(39, 12, 27)" />
  <path fill-rule="evenodd" clip-rule="evenodd" d="M192 320C197.523 320 202 315.523 202 310V300V280C196.477 280 192 284.477 192 290V300V320ZM214 320C208.477 320 204 315.523 204 310V300V280C209.523 280 214 284.477 214 290V300V320Z" fill="rgb(39, 12, 27)" />
  <path fill-rule="evenodd" clip-rule="evenodd" d="M216 320C221.523 320 226 315.523 226 310V300V280C220.477 280 216 284.477 216 290V300V320ZM238 320C232.477 320 228 315.523 228 310V300V280C233.523 280 238 284.477 238 290V300V320Z" fill="rgb(39, 12, 27)" />
  <path fill-rule="evenodd" clip-rule="evenodd" d="M240 320C245.523 320 250 315.523 250 310V300V280C244.477 280 240 284.477 240 290V300V320ZM262 320C256.477 320 252 315.523 252 310V300V280C257.523 280 262 284.477 262 290V300V320Z" fill="rgb(39, 12, 27)" />
  <path fill-rule="evenodd" clip-rule="evenodd" d="M264 320C269.523 320 274 315.523 274 310V300V280C268.477 280 264 284.477 264 290V300V320ZM286 320C280.477 320 276 315.523 276 310V300V280C281.523 280 286 284.477 286 290V300V320Z" fill="rgb(39, 12, 27)" />
  <path fill-rule="evenodd" clip-rule="evenodd" d="M288 320C293.523 320 298 315.523 298 310V300V280C292.477 280 288 284.477 288 290V300V320ZM310 320C304.477 320 300 315.523 300 310V300V280C305.523 280 310 284.477 310 290V300V320Z" fill="rgb(39, 12, 27)" />
  <path fill-rule="evenodd" clip-rule="evenodd" d="M312 320C317.523 320 322 315.523 322 310V300V280C316.477 280 312 284.477 312 290V300V320ZM334 320C328.477 320 324 315.523 324 310V300V280C329.523 280 334 284.477 334 290V300V320Z" fill="rgb(39, 12, 27)" />
  <path fill-rule="evenodd" clip-rule="evenodd" d="M336 320C341.523 320 346 315.523 346 310V300V280C340.477 280 336 284.477 336 290V300V320ZM358 320C352.477 320 348 315.523 348 310V300V280C353.523 280 358 284.477 358 290V300V320Z" fill="rgb(39, 12, 27)" />
  <path fill-rule="evenodd" clip-rule="evenodd" d="M360 320C365.523 320 370 315.523 370 310V300V280C364.477 280 360 284.477 360 290V300V320ZM382 320C376.477 320 372 315.523 372 310V300V280C377.523 280 382 284.477 382 290V300V320Z" fill="rgb(39, 12, 27)" />
  <path fill-rule="evenodd" clip-rule="evenodd" d="M384 320C389.523 320 394 315.523 394 310V300V280C388.477 280 384 284.477 384 290V300V320ZM406 320C400.477 320 396 315.523 396 310V300V280C401.523 280 406 284.477 406 290V300V320Z" fill="rgb(39, 12, 27)" />
  <path fill-rule="evenodd" clip-rule="evenodd" d="M408 320C413.523 320 418 315.523 418 310V300V280C412.477 280 408 284.477 408 290V300V320ZM430 320C424.477 320 420 315.523 420 310V300V280C425.523 280 430 284.477 430 290V300V320Z" fill="rgb(39, 12, 27)" />
  <path fill-rule="evenodd" clip-rule="evenodd" d="M432 320C437.523 320 442 315.523 442 310V300V280C436.477 280 432 284.477 432 290V300V320ZM454 320C448.477 320 444 315.523 444 310V300V280C449.523 280 454 284.477 454 290V300V320Z" fill="rgb(39, 12, 27)" />
  <path fill-rule="evenodd" clip-rule="evenodd" d="M456 320C461.523 320 466 315.523 466 310V300V280C460.477 280 456 284.477 456 290V300V320ZM478 320C472.477 320 468 315.523 468 310V300V280C473.523 280 478 284.477 478 290V300V320Z" fill="rgb(39, 12, 27)" />
  <path fill-rule="evenodd" clip-rule="evenodd" d="M480 320C485.523 320 490 315.523 490 310V300V280C484.477 280 480 284.477 480 290V300V320ZM502 320C496.477 320 492 315.523 492 310V300V280C497.523 280 502 284.477 502 290V300V320Z" fill="rgb(39, 12, 27)" />
  <path fill-rule="evenodd" clip-rule="evenodd" d="M0 360C5.52285 360 10 355.523 10 350V340V320C4.47715 320 0 324.477 0 330V340V360ZM22 360C16.4772 360 12 355.523 12 350V340V320C17.5228 320 22 324.477 22 330V340V360Z" fill="rgb(39, 12, 27)" />
  <path fill-rule="evenodd" clip-rule="evenodd" d="M24 360C29.5228 360 34 355.523 34 350V340V320C28.4772 320 24 324.477 24 330V340V360ZM46 360C40.4772 360 36 355.523 36 350V340V320C41.5228 320 46 324.477 46 330V340V360Z" fill="rgb(39, 12, 27)" />
  <path fill-rule="evenodd" clip-rule="evenodd" d="M48 360C53.5228 360 58 355.523 58 350V340V320C52.4772 320 48 324.477 48 330V340V360ZM70 360C64.4772 360 60 355.523 60 350V340V320C65.5228 320 70 324.477 70 330V340V360Z" fill="rgb(39, 12, 27)" />
  <path fill-rule="evenodd" clip-rule="evenodd" d="M72 360C77.5228 360 82 355.523 82 350V340V320C76.4772 320 72 324.477 72 330V340V360ZM94 360C88.4772 360 84 355.523 84 350V340V320C89.5228 320 94 324.477 94 330V340V360Z" fill="rgb(39, 12, 27)" />
  <path fill-rule="evenodd" clip-rule="evenodd" d="M96 360C101.523 360 106 355.523 106 350V340V320C100.477 320 96 324.477 96 330V340V360ZM118 360C112.477 360 108 355.523 108 350V340V320C113.523 320 118 324.477 118 330V340V360Z" fill="rgb(39, 12, 27)" />
  <path fill-rule="evenodd" clip-rule="evenodd" d="M120 360C125.523 360 130 355.523 130 350V340V320C124.477 320 120 324.477 120 330V340V360ZM142 360C136.477 360 132 355.523 132 350V340V320C137.523 320 142 324.477 142 330V340V360Z" fill="rgb(39, 12, 27)" />
  <path fill-rule="evenodd" clip-rule="evenodd" d="M144 360C149.523 360 154 355.523 154 350V340V320C148.477 320 144 324.477 144 330V340V360ZM166 360C160.477 360 156 355.523 156 350V340V320C161.523 320 166 324.477 166 330V340V360Z" fill="rgb(39, 12, 27)" />
  <path fill-rule="evenodd" clip-rule="evenodd" d="M168 360C173.523 360 178 355.523 178 350V340V320C172.477 320 168 324.477 168 330V340V360ZM190 360C184.477 360 180 355.523 180 350V340V320C185.523 320 190 324.477 190 330V340V360Z" fill="rgb(39, 12, 27)" />
  <path fill-rule="evenodd" clip-rule="evenodd" d="M192 360C197.523 360 202 355.523 202 350V340V320C196.477 320 192 324.477 192 330V340V360ZM214 360C208.477 360 204 355.523 204 350V340V320C209.523 320 214 324.477 214 330V340V360Z" fill="rgb(39, 12, 27)" />
  <path fill-rule="evenodd" clip-rule="evenodd" d="M216 360C221.523 360 226 355.523 226 350V340V320C220.477 320 216 324.477 216 330V340V360ZM238 360C232.477 360 228 355.523 228 350V340V320C233.523 320 238 324.477 238 330V340V360Z" fill="rgb(39, 12, 27)" />
  <path fill-rule="evenodd" clip-rule="evenodd" d="M240 360C245.523 360 250 355.523 250 350V340V320C244.477 320 240 324.477 240 330V340V360ZM262 360C256.477 360 252 355.523 252 350V340V320C257.523 320 262 324.477 262 330V340V360Z" fill="rgb(39, 12, 27)" />
  <path fill-rule="evenodd" clip-rule="evenodd" d="M264 360C269.523 360 274 355.523 274 350V340V320C268.477 320 264 324.477 264 330V340V360ZM286 360C280.477 360 276 355.523 276 350V340V320C281.523 320 286 324.477 286 330V340V360Z" fill="rgb(39, 12, 27)" />
  <path fill-rule="evenodd" clip-rule="evenodd" d="M288 360C293.523 360 298 355.523 298 350V340V320C292.477 320 288 324.477 288 330V340V360ZM310 360C304.477 360 300 355.523 300 350V340V320C305.523 320 310 324.477 310 330V340V360Z" fill="rgb(39, 12, 27)" />
  <path fill-rule="evenodd" clip-rule="evenodd" d="M312 360C317.523 360 322 355.523 322 350V340V320C316.477 320 312 324.477 312 330V340V360ZM334 360C328.477 360 324 355.523 324 350V340V320C329.523 320 334 324.477 334 330V340V360Z" fill="rgb(39, 12, 27)" />
  <path fill-rule="evenodd" clip-rule="evenodd" d="M336 360C341.523 360 346 355.523 346 350V340V320C340.477 320 336 324.477 336 330V340V360ZM358 360C352.477 360 348 355.523 348 350V340V320C353.523 320 358 324.477 358 330V340V360Z" fill="rgb(39, 12, 27)" />
  <path fill-rule="evenodd" clip-rule="evenodd" d="M360 360C365.523 360 370 355.523 370 350V340V320C364.477 320 360 324.477 360 330V340V360ZM382 360C376.477 360 372 355.523 372 350V340V320C377.523 320 382 324.477 382 330V340V360Z" fill="rgb(39, 12, 27)" />
  <path fill-rule="evenodd" clip-rule="evenodd" d="M384 360C389.523 360 394 355.523 394 350V340V320C388.477 320 384 324.477 384 330V340V360ZM406 360C400.477 360 396 355.523 396 350V340V320C401.523 320 406 324.477 406 330V340V360Z" fill="rgb(39, 12, 27)" />
  <path fill-rule="evenodd" clip-rule="evenodd" d="M408 360C413.523 360 418 355.523 418 350V340V320C412.477 320 408 324.477 408 330V340V360ZM430 360C424.477 360 420 355.523 420 350V340V320C425.523 320 430 324.477 430 330V340V360Z" fill="rgb(39, 12, 27)" />
  <path fill-rule="evenodd" clip-rule="evenodd" d="M432 360C437.523 360 442 355.523 442 350V340V320C436.477 320 432 324.477 432 330V340V360ZM454 360C448.477 360 444 355.523 444 350V340V320C449.523 320 454 324.477 454 330V340V360Z" fill="rgb(39, 12, 27)" />
  <path fill-rule="evenodd" clip-rule="evenodd" d="M456 360C461.523 360 466 355.523 466 350V340V320C460.477 320 456 324.477 456 330V340V360ZM478 360C472.477 360 468 355.523 468 350V340V320C473.523 320 478 324.477 478 330V340V360Z" fill="rgb(39, 12, 27)" />
  <path fill-rule="evenodd" clip-rule="evenodd" d="M480 360C485.523 360 490 355.523 490 350V340V320C484.477 320 480 324.477 480 330V340V360ZM502 360C496.477 360 492 355.523 492 350V340V320C497.523 320 502 324.477 502 330V340V360Z" fill="rgb(39, 12, 27)" />
  <path fill-rule="evenodd" clip-rule="evenodd" d="M0 400C5.52285 400 10 395.523 10 390V380V360C4.47715 360 0 364.477 0 370V380V400ZM22 400C16.4772 400 12 395.523 12 390V380V360C17.5228 360 22 364.477 22 370V380V400Z" fill="rgb(39, 12, 27)" />
  <path fill-rule="evenodd" clip-rule="evenodd" d="M24 400C29.5228 400 34 395.523 34 390V380V360C28.4772 360 24 364.477 24 370V380V400ZM46 400C40.4772 400 36 395.523 36 390V380V360C41.5228 360 46 364.477 46 370V380V400Z" fill="rgb(39, 12, 27)" />
  <path fill-rule="evenodd" clip-rule="evenodd" d="M48 400C53.5228 400 58 395.523 58 390V380V360C52.4772 360 48 364.477 48 370V380V400ZM70 400C64.4772 400 60 395.523 60 390V380V360C65.5228 360 70 364.477 70 370V380V400Z" fill="rgb(39, 12, 27)" />
  <path fill-rule="evenodd" clip-rule="evenodd" d="M72 400C77.5228 400 82 395.523 82 390V380V360C76.4772 360 72 364.477 72 370V380V400ZM94 400C88.4772 400 84 395.523 84 390V380V360C89.5228 360 94 364.477 94 370V380V400Z" fill="rgb(39, 12, 27)" />
  <path fill-rule="evenodd" clip-rule="evenodd" d="M96 400C101.523 400 106 395.523 106 390V380V360C100.477 360 96 364.477 96 370V380V400ZM118 400C112.477 400 108 395.523 108 390V380V360C113.523 360 118 364.477 118 370V380V400Z" fill="rgb(39, 12, 27)" />
  <path fill-rule="evenodd" clip-rule="evenodd" d="M120 400C125.523 400 130 395.523 130 390V380V360C124.477 360 120 364.477 120 370V380V400ZM142 400C136.477 400 132 395.523 132 390V380V360C137.523 360 142 364.477 142 370V380V400Z" fill="rgb(39, 12, 27)" />
  <path fill-rule="evenodd" clip-rule="evenodd" d="M144 400C149.523 400 154 395.523 154 390V380V360C148.477 360 144 364.477 144 370V380V400ZM166 400C160.477 400 156 395.523 156 390V380V360C161.523 360 166 364.477 166 370V380V400Z" fill="rgb(39, 12, 27)" />
  <path fill-rule="evenodd" clip-rule="evenodd" d="M168 400C173.523 400 178 395.523 178 390V380V360C172.477 360 168 364.477 168 370V380V400ZM190 400C184.477 400 180 395.523 180 390V380V360C185.523 360 190 364.477 190 370V380V400Z" fill="rgb(39, 12, 27)" />
  <path fill-rule="evenodd" clip-rule="evenodd" d="M192 400C197.523 400 202 395.523 202 390V380V360C196.477 360 192 364.477 192 370V380V400ZM214 400C208.477 400 204 395.523 204 390V380V360C209.523 360 214 364.477 214 370V380V400Z" fill="rgb(39, 12, 27)" />
  <path fill-rule="evenodd" clip-rule="evenodd" d="M216 400C221.523 400 226 395.523 226 390V380V360C220.477 360 216 364.477 216 370V380V400ZM238 400C232.477 400 228 395.523 228 390V380V360C233.523 360 238 364.477 238 370V380V400Z" fill="rgb(39, 12, 27)" />
  <path fill-rule="evenodd" clip-rule="evenodd" d="M240 400C245.523 400 250 395.523 250 390V380V360C244.477 360 240 364.477 240 370V380V400ZM262 400C256.477 400 252 395.523 252 390V380V360C257.523 360 262 364.477 262 370V380V400Z" fill="rgb(39, 12, 27)" />
  <path fill-rule="evenodd" clip-rule="evenodd" d="M264 400C269.523 400 274 395.523 274 390V380V360C268.477 360 264 364.477 264 370V380V400ZM286 400C280.477 400 276 395.523 276 390V380V360C281.523 360 286 364.477 286 370V380V400Z" fill="rgb(39, 12, 27)" />
  <path fill-rule="evenodd" clip-rule="evenodd" d="M288 400C293.523 400 298 395.523 298 390V380V360C292.477 360 288 364.477 288 370V380V400ZM310 400C304.477 400 300 395.523 300 390V380V360C305.523 360 310 364.477 310 370V380V400Z" fill="rgb(39, 12, 27)" />
  <path fill-rule="evenodd" clip-rule="evenodd" d="M312 400C317.523 400 322 395.523 322 390V380V360C316.477 360 312 364.477 312 370V380V400ZM334 400C328.477 400 324 395.523 324 390V380V360C329.523 360 334 364.477 334 370V380V400Z" fill="rgb(39, 12, 27)" />
  <path fill-rule="evenodd" clip-rule="evenodd" d="M336 400C341.523 400 346 395.523 346 390V380V360C340.477 360 336 364.477 336 370V380V400ZM358 400C352.477 400 348 395.523 348 390V380V360C353.523 360 358 364.477 358 370V380V400Z" fill="rgb(39, 12, 27)" />
  <path fill-rule="evenodd" clip-rule="evenodd" d="M360 400C365.523 400 370 395.523 370 390V380V360C364.477 360 360 364.477 360 370V380V400ZM382 400C376.477 400 372 395.523 372 390V380V360C377.523 360 382 364.477 382 370V380V400Z" fill="rgb(39, 12, 27)" />
  <path fill-rule="evenodd" clip-rule="evenodd" d="M384 400C389.523 400 394 395.523 394 390V380V360C388.477 360 384 364.477 384 370V380V400ZM406 400C400.477 400 396 395.523 396 390V380V360C401.523 360 406 364.477 406 370V380V400Z" fill="rgb(39, 12, 27)" />
  <path fill-rule="evenodd" clip-rule="evenodd" d="M408 400C413.523 400 418 395.523 418 390V380V360C412.477 360 408 364.477 408 370V380V400ZM430 400C424.477 400 420 395.523 420 390V380V360C425.523 360 430 364.477 430 370V380V400Z" fill="rgb(39, 12, 27)" />
  <path fill-rule="evenodd" clip-rule="evenodd" d="M432 400C437.523 400 442 395.523 442 390V380V360C436.477 360 432 364.477 432 370V380V400ZM454 400C448.477 400 444 395.523 444 390V380V360C449.523 360 454 364.477 454 370V380V400Z" fill="rgb(39, 12, 27)" />
  <path fill-rule="evenodd" clip-rule="evenodd" d="M456 400C461.523 400 466 395.523 466 390V380V360C460.477 360 456 364.477 456 370V380V400ZM478 400C472.477 400 468 395.523 468 390V380V360C473.523 360 478 364.477 478 370V380V400Z" fill="rgb(39, 12, 27)" />
  <path fill-rule="evenodd" clip-rule="evenodd" d="M480 400C485.523 400 490 395.523 490 390V380V360C484.477 360 480 364.477 480 370V380V400ZM502 400C496.477 400 492 395.523 492 390V380V360C497.523 360 502 364.477 502 370V380V400Z" fill="rgb(39, 12, 27)" />
  <path fill-rule="evenodd" clip-rule="evenodd" d="M0 440C5.52285 440 10 435.523 10 430V420V400C4.47715 400 0 404.477 0 410V420V440ZM22 440C16.4772 440 12 435.523 12 430V420V400C17.5228 400 22 404.477 22 410V420V440Z" fill="rgb(39, 12, 27)" />
  <path fill-rule="evenodd" clip-rule="evenodd" d="M24 440C29.5228 440 34 435.523 34 430V420V400C28.4772 400 24 404.477 24 410V420V440ZM46 440C40.4772 440 36 435.523 36 430V420V400C41.5228 400 46 404.477 46 410V420V440Z" fill="rgb(39, 12, 27)" />
  <path fill-rule="evenodd" clip-rule="evenodd" d="M48 440C53.5228 440 58 435.523 58 430V420V400C52.4772 400 48 404.477 48 410V420V440ZM70 440C64.4772 440 60 435.523 60 430V420V400C65.5228 400 70 404.477 70 410V420V440Z" fill="rgb(39, 12, 27)" />
  <path fill-rule="evenodd" clip-rule="evenodd" d="M72 440C77.5228 440 82 435.523 82 430V420V400C76.4772 400 72 404.477 72 410V420V440ZM94 440C88.4772 440 84 435.523 84 430V420V400C89.5228 400 94 404.477 94 410V420V440Z" fill="rgb(39, 12, 27)" />
  <path fill-rule="evenodd" clip-rule="evenodd" d="M96 440C101.523 440 106 435.523 106 430V420V400C100.477 400 96 404.477 96 410V420V440ZM118 440C112.477 440 108 435.523 108 430V420V400C113.523 400 118 404.477 118 410V420V440Z" fill="rgb(39, 12, 27)" />
  <path fill-rule="evenodd" clip-rule="evenodd" d="M120 440C125.523 440 130 435.523 130 430V420V400C124.477 400 120 404.477 120 410V420V440ZM142 440C136.477 440 132 435.523 132 430V420V400C137.523 400 142 404.477 142 410V420V440Z" fill="rgb(39, 12, 27)" />
  <path fill-rule="evenodd" clip-rule="evenodd" d="M144 440C149.523 440 154 435.523 154 430V420V400C148.477 400 144 404.477 144 410V420V440ZM166 440C160.477 440 156 435.523 156 430V420V400C161.523 400 166 404.477 166 410V420V440Z" fill="rgb(39, 12, 27)" />
  <path fill-rule="evenodd" clip-rule="evenodd" d="M168 440C173.523 440 178 435.523 178 430V420V400C172.477 400 168 404.477 168 410V420V440ZM190 440C184.477 440 180 435.523 180 430V420V400C185.523 400 190 404.477 190 410V420V440Z" fill="rgb(39, 12, 27)" />
  <path fill-rule="evenodd" clip-rule="evenodd" d="M192 440C197.523 440 202 435.523 202 430V420V400C196.477 400 192 404.477 192 410V420V440ZM214 440C208.477 440 204 435.523 204 430V420V400C209.523 400 214 404.477 214 410V420V440Z" fill="rgb(39, 12, 27)" />
  <path fill-rule="evenodd" clip-rule="evenodd" d="M216 440C221.523 440 226 435.523 226 430V420V400C220.477 400 216 404.477 216 410V420V440ZM238 440C232.477 440 228 435.523 228 430V420V400C233.523 400 238 404.477 238 410V420V440Z" fill="rgb(39, 12, 27)" />
  <path fill-rule="evenodd" clip-rule="evenodd" d="M240 440C245.523 440 250 435.523 250 430V420V400C244.477 400 240 404.477 240 410V420V440ZM262 440C256.477 440 252 435.523 252 430V420V400C257.523 400 262 404.477 262 410V420V440Z" fill="rgb(39, 12, 27)" />
  <path fill-rule="evenodd" clip-rule="evenodd" d="M264 440C269.523 440 274 435.523 274 430V420V400C268.477 400 264 404.477 264 410V420V440ZM286 440C280.477 440 276 435.523 276 430V420V400C281.523 400 286 404.477 286 410V420V440Z" fill="rgb(39, 12, 27)" />
  <path fill-rule="evenodd" clip-rule="evenodd" d="M288 440C293.523 440 298 435.523 298 430V420V400C292.477 400 288 404.477 288 410V420V440ZM310 440C304.477 440 300 435.523 300 430V420V400C305.523 400 310 404.477 310 410V420V440Z" fill="rgb(39, 12, 27)" />
  <path fill-rule="evenodd" clip-rule="evenodd" d="M312 440C317.523 440 322 435.523 322 430V420V400C316.477 400 312 404.477 312 410V420V440ZM334 440C328.477 440 324 435.523 324 430V420V400C329.523 400 334 404.477 334 410V420V440Z" fill="rgb(39, 12, 27)" />
  <path fill-rule="evenodd" clip-rule="evenodd" d="M336 440C341.523 440 346 435.523 346 430V420V400C340.477 400 336 404.477 336 410V420V440ZM358 440C352.477 440 348 435.523 348 430V420V400C353.523 400 358 404.477 358 410V420V440Z" fill="rgb(39, 12, 27)" />
  <path fill-rule="evenodd" clip-rule="evenodd" d="M360 440C365.523 440 370 435.523 370 430V420V400C364.477 400 360 404.477 360 410V420V440ZM382 440C376.477 440 372 435.523 372 430V420V400C377.523 400 382 404.477 382 410V420V440Z" fill="rgb(39, 12, 27)" />
  <path fill-rule="evenodd" clip-rule="evenodd" d="M384 440C389.523 440 394 435.523 394 430V420V400C388.477 400 384 404.477 384 410V420V440ZM406 440C400.477 440 396 435.523 396 430V420V400C401.523 400 406 404.477 406 410V420V440Z" fill="rgb(39, 12, 27)" />
  <path fill-rule="evenodd" clip-rule="evenodd" d="M408 440C413.523 440 418 435.523 418 430V420V400C412.477 400 408 404.477 408 410V420V440ZM430 440C424.477 440 420 435.523 420 430V420V400C425.523 400 430 404.477 430 410V420V440Z" fill="rgb(39, 12, 27)" />
  <path fill-rule="evenodd" clip-rule="evenodd" d="M432 440C437.523 440 442 435.523 442 430V420V400C436.477 400 432 404.477 432 410V420V440ZM454 440C448.477 440 444 435.523 444 430V420V400C449.523 400 454 404.477 454 410V420V440Z" fill="rgb(39, 12, 27)" />
  <path fill-rule="evenodd" clip-rule="evenodd" d="M456 440C461.523 440 466 435.523 466 430V420V400C460.477 400 456 404.477 456 410V420V440ZM478 440C472.477 440 468 435.523 468 430V420V400C473.523 400 478 404.477 478 410V420V440Z" fill="rgb(39, 12, 27)" />
  <path fill-rule="evenodd" clip-rule="evenodd" d="M480 440C485.523 440 490 435.523 490 430V420V400C484.477 400 480 404.477 480 410V420V440ZM502 440C496.477 440 492 435.523 492 430V420V400C497.523 400 502 404.477 502 410V420V440Z" fill="rgb(39, 12, 27)" />
  <path fill-rule="evenodd" clip-rule="evenodd" d="M0 480C5.52285 480 10 475.523 10 470V460V440C4.47715 440 0 444.477 0 450V460V480ZM22 480C16.4772 480 12 475.523 12 470V460V440C17.5228 440 22 444.477 22 450V460V480Z" fill="rgb(39, 12, 27)" />
  <path fill-rule="evenodd" clip-rule="evenodd" d="M24 480C29.5228 480 34 475.523 34 470V460V440C28.4772 440 24 444.477 24 450V460V480ZM46 480C40.4772 480 36 475.523 36 470V460V440C41.5228 440 46 444.477 46 450V460V480Z" fill="rgb(39, 12, 27)" />
  <path fill-rule="evenodd" clip-rule="evenodd" d="M48 480C53.5228 480 58 475.523 58 470V460V440C52.4772 440 48 444.477 48 450V460V480ZM70 480C64.4772 480 60 475.523 60 470V460V440C65.5228 440 70 444.477 70 450V460V480Z" fill="rgb(39, 12, 27)" />
  <path fill-rule="evenodd" clip-rule="evenodd" d="M72 480C77.5228 480 82 475.523 82 470V460V440C76.4772 440 72 444.477 72 450V460V480ZM94 480C88.4772 480 84 475.523 84 470V460V440C89.5228 440 94 444.477 94 450V460V480Z" fill="rgb(39, 12, 27)" />
  <path fill-rule="evenodd" clip-rule="evenodd" d="M96 480C101.523 480 106 475.523 106 470V460V440C100.477 440 96 444.477 96 450V460V480ZM118 480C112.477 480 108 475.523 108 470V460V440C113.523 440 118 444.477 118 450V460V480Z" fill="rgb(39, 12, 27)" />
  <path fill-rule="evenodd" clip-rule="evenodd" d="M120 480C125.523 480 130 475.523 130 470V460V440C124.477 440 120 444.477 120 450V460V480ZM142 480C136.477 480 132 475.523 132 470V460V440C137.523 440 142 444.477 142 450V460V480Z" fill="rgb(39, 12, 27)" />
  <path fill-rule="evenodd" clip-rule="evenodd" d="M144 480C149.523 480 154 475.523 154 470V460V440C148.477 440 144 444.477 144 450V460V480ZM166 480C160.477 480 156 475.523 156 470V460V440C161.523 440 166 444.477 166 450V460V480Z" fill="rgb(39, 12, 27)" />
  <path fill-rule="evenodd" clip-rule="evenodd" d="M168 480C173.523 480 178 475.523 178 470V460V440C172.477 440 168 444.477 168 450V460V480ZM190 480C184.477 480 180 475.523 180 470V460V440C185.523 440 190 444.477 190 450V460V480Z" fill="rgb(39, 12, 27)" />
  <path fill-rule="evenodd" clip-rule="evenodd" d="M192 480C197.523 480 202 475.523 202 470V460V440C196.477 440 192 444.477 192 450V460V480ZM214 480C208.477 480 204 475.523 204 470V460V440C209.523 440 214 444.477 214 450V460V480Z" fill="rgb(39, 12, 27)" />
  <path fill-rule="evenodd" clip-rule="evenodd" d="M216 480C221.523 480 226 475.523 226 470V460V440C220.477 440 216 444.477 216 450V460V480ZM238 480C232.477 480 228 475.523 228 470V460V440C233.523 440 238 444.477 238 450V460V480Z" fill="rgb(39, 12, 27)" />
  <path fill-rule="evenodd" clip-rule="evenodd" d="M240 480C245.523 480 250 475.523 250 470V460V440C244.477 440 240 444.477 240 450V460V480ZM262 480C256.477 480 252 475.523 252 470V460V440C257.523 440 262 444.477 262 450V460V480Z" fill="rgb(39, 12, 27)" />
  <path fill-rule="evenodd" clip-rule="evenodd" d="M264 480C269.523 480 274 475.523 274 470V460V440C268.477 440 264 444.477 264 450V460V480ZM286 480C280.477 480 276 475.523 276 470V460V440C281.523 440 286 444.477 286 450V460V480Z" fill="rgb(39, 12, 27)" />
  <path fill-rule="evenodd" clip-rule="evenodd" d="M288 480C293.523 480 298 475.523 298 470V460V440C292.477 440 288 444.477 288 450V460V480ZM310 480C304.477 480 300 475.523 300 470V460V440C305.523 440 310 444.477 310 450V460V480Z" fill="rgb(39, 12, 27)" />
  <path fill-rule="evenodd" clip-rule="evenodd" d="M312 480C317.523 480 322 475.523 322 470V460V440C316.477 440 312 444.477 312 450V460V480ZM334 480C328.477 480 324 475.523 324 470V460V440C329.523 440 334 444.477 334 450V460V480Z" fill="rgb(39, 12, 27)" />
  <path fill-rule="evenodd" clip-rule="evenodd" d="M336 480C341.523 480 346 475.523 346 470V460V440C340.477 440 336 444.477 336 450V460V480ZM358 480C352.477 480 348 475.523 348 470V460V440C353.523 440 358 444.477 358 450V460V480Z" fill="rgb(39, 12, 27)" />
  <path fill-rule="evenodd" clip-rule="evenodd" d="M360 480C365.523 480 370 475.523 370 470V460V440C364.477 440 360 444.477 360 450V460V480ZM382 480C376.477 480 372 475.523 372 470V460V440C377.523 440 382 444.477 382 450V460V480Z" fill="rgb(39, 12, 27)" />
  <path fill-rule="evenodd" clip-rule="evenodd" d="M384 480C389.523 480 394 475.523 394 470V460V440C388.477 440 384 444.477 384 450V460V480ZM406 480C400.477 480 396 475.523 396 470V460V440C401.523 440 406 444.477 406 450V460V480Z" fill="rgb(39, 12, 27)" />
  <path fill-rule="evenodd" clip-rule="evenodd" d="M408 480C413.523 480 418 475.523 418 470V460V440C412.477 440 408 444.477 408 450V460V480ZM430 480C424.477 480 420 475.523 420 470V460V440C425.523 440 430 444.477 430 450V460V480Z" fill="rgb(39, 12, 27)" />
  <path fill-rule="evenodd" clip-rule="evenodd" d="M432 480C437.523 480 442 475.523 442 470V460V440C436.477 440 432 444.477 432 450V460V480ZM454 480C448.477 480 444 475.523 444 470V460V440C449.523 440 454 444.477 454 450V460V480Z" fill="rgb(39, 12, 27)" />
  <path fill-rule="evenodd" clip-rule="evenodd" d="M456 480C461.523 480 466 475.523 466 470V460V440C460.477 440 456 444.477 456 450V460V480ZM478 480C472.477 480 468 475.523 468 470V460V440C473.523 440 478 444.477 478 450V460V480Z" fill="rgb(39, 12, 27)" />
  <path fill-rule="evenodd" clip-rule="evenodd" d="M480 480C485.523 480 490 475.523 490 470V460V440C484.477 440 480 444.477 480 450V460V480ZM502 480C496.477 480 492 475.523 492 470V460V440C497.523 440 502 444.477 502 450V460V480Z" fill="rgb(39, 12, 27)" />
  <path fill-rule="evenodd" clip-rule="evenodd" d="M0 520C5.52285 520 10 515.523 10 510V500V480C4.47715 480 0 484.477 0 490V500V520ZM22 520C16.4772 520 12 515.523 12 510V500V480C17.5228 480 22 484.477 22 490V500V520Z" fill="rgb(39, 12, 27)" />
  <path fill-rule="evenodd" clip-rule="evenodd" d="M24 520C29.5228 520 34 515.523 34 510V500V480C28.4772 480 24 484.477 24 490V500V520ZM46 520C40.4772 520 36 515.523 36 510V500V480C41.5228 480 46 484.477 46 490V500V520Z" fill="rgb(39, 12, 27)" />
  <path fill-rule="evenodd" clip-rule="evenodd" d="M48 520C53.5228 520 58 515.523 58 510V500V480C52.4772 480 48 484.477 48 490V500V520ZM70 520C64.4772 520 60 515.523 60 510V500V480C65.5228 480 70 484.477 70 490V500V520Z" fill="rgb(39, 12, 27)" />
  <path fill-rule="evenodd" clip-rule="evenodd" d="M72 520C77.5228 520 82 515.523 82 510V500V480C76.4772 480 72 484.477 72 490V500V520ZM94 520C88.4772 520 84 515.523 84 510V500V480C89.5228 480 94 484.477 94 490V500V520Z" fill="rgb(39, 12, 27)" />
  <path fill-rule="evenodd" clip-rule="evenodd" d="M96 520C101.523 520 106 515.523 106 510V500V480C100.477 480 96 484.477 96 490V500V520ZM118 520C112.477 520 108 515.523 108 510V500V480C113.523 480 118 484.477 118 490V500V520Z" fill="rgb(39, 12, 27)" />
  <path fill-rule="evenodd" clip-rule="evenodd" d="M120 520C125.523 520 130 515.523 130 510V500V480C124.477 480 120 484.477 120 490V500V520ZM142 520C136.477 520 132 515.523 132 510V500V480C137.523 480 142 484.477 142 490V500V520Z" fill="rgb(39, 12, 27)" />
  <path fill-rule="evenodd" clip-rule="evenodd" d="M144 520C149.523 520 154 515.523 154 510V500V480C148.477 480 144 484.477 144 490V500V520ZM166 520C160.477 520 156 515.523 156 510V500V480C161.523 480 166 484.477 166 490V500V520Z" fill="rgb(39, 12, 27)" />
  <path fill-rule="evenodd" clip-rule="evenodd" d="M168 520C173.523 520 178 515.523 178 510V500V480C172.477 480 168 484.477 168 490V500V520ZM190 520C184.477 520 180 515.523 180 510V500V480C185.523 480 190 484.477 190 490V500V520Z" fill="rgb(39, 12, 27)" />
  <path fill-rule="evenodd" clip-rule="evenodd" d="M192 520C197.523 520 202 515.523 202 510V500V480C196.477 480 192 484.477 192 490V500V520ZM214 520C208.477 520 204 515.523 204 510V500V480C209.523 480 214 484.477 214 490V500V520Z" fill="rgb(39, 12, 27)" />
  <path fill-rule="evenodd" clip-rule="evenodd" d="M216 520C221.523 520 226 515.523 226 510V500V480C220.477 480 216 484.477 216 490V500V520ZM238 520C232.477 520 228 515.523 228 510V500V480C233.523 480 238 484.477 238 490V500V520Z" fill="rgb(39, 12, 27)" />
  <path fill-rule="evenodd" clip-rule="evenodd" d="M240 520C245.523 520 250 515.523 250 510V500V480C244.477 480 240 484.477 240 490V500V520ZM262 520C256.477 520 252 515.523 252 510V500V480C257.523 480 262 484.477 262 490V500V520Z" fill="rgb(39, 12, 27)" />
  <path fill-rule="evenodd" clip-rule="evenodd" d="M264 520C269.523 520 274 515.523 274 510V500V480C268.477 480 264 484.477 264 490V500V520ZM286 520C280.477 520 276 515.523 276 510V500V480C281.523 480 286 484.477 286 490V500V520Z" fill="rgb(39, 12, 27)" />
  <path fill-rule="evenodd" clip-rule="evenodd" d="M288 520C293.523 520 298 515.523 298 510V500V480C292.477 480 288 484.477 288 490V500V520ZM310 520C304.477 520 300 515.523 300 510V500V480C305.523 480 310 484.477 310 490V500V520Z" fill="rgb(39, 12, 27)" />
  <path fill-rule="evenodd" clip-rule="evenodd" d="M312 520C317.523 520 322 515.523 322 510V500V480C316.477 480 312 484.477 312 490V500V520ZM334 520C328.477 520 324 515.523 324 510V500V480C329.523 480 334 484.477 334 490V500V520Z" fill="rgb(39, 12, 27)" />
  <path fill-rule="evenodd" clip-rule="evenodd" d="M336 520C341.523 520 346 515.523 346 510V500V480C340.477 480 336 484.477 336 490V500V520ZM358 520C352.477 520 348 515.523 348 510V500V480C353.523 480 358 484.477 358 490V500V520Z" fill="rgb(39, 12, 27)" />
  <path fill-rule="evenodd" clip-rule="evenodd" d="M360 520C365.523 520 370 515.523 370 510V500V480C364.477 480 360 484.477 360 490V500V520ZM382 520C376.477 520 372 515.523 372 510V500V480C377.523 480 382 484.477 382 490V500V520Z" fill="rgb(39, 12, 27)" />
  <path fill-rule="evenodd" clip-rule="evenodd" d="M384 520C389.523 520 394 515.523 394 510V500V480C388.477 480 384 484.477 384 490V500V520ZM406 520C400.477 520 396 515.523 396 510V500V480C401.523 480 406 484.477 406 490V500V520Z" fill="rgb(39, 12, 27)" />
  <path fill-rule="evenodd" clip-rule="evenodd" d="M408 520C413.523 520 418 515.523 418 510V500V480C412.477 480 408 484.477 408 490V500V520ZM430 520C424.477 520 420 515.523 420 510V500V480C425.523 480 430 484.477 430 490V500V520Z" fill="rgb(39, 12, 27)" />
  <path fill-rule="evenodd" clip-rule="evenodd" d="M432 520C437.523 520 442 515.523 442 510V500V480C436.477 480 432 484.477 432 490V500V520ZM454 520C448.477 520 444 515.523 444 510V500V480C449.523 480 454 484.477 454 490V500V520Z" fill="rgb(39, 12, 27)" />
  <path fill-rule="evenodd" clip-rule="evenodd" d="M456 520C461.523 520 466 515.523 466 510V500V480C460.477 480 456 484.477 456 490V500V520ZM478 520C472.477 520 468 515.523 468 510V500V480C473.523 480 478 484.477 478 490V500V520Z" fill="rgb(39, 12, 27)" />
  <path fill-rule="evenodd" clip-rule="evenodd" d="M480 520C485.523 520 490 515.523 490 510V500V480C484.477 480 480 484.477 480 490V500V520ZM502 520C496.477 520 492 515.523 492 510V500V480C497.523 480 502 484.477 502 490V500V520Z" fill="rgb(39, 12, 27)" />
</svg>